<?xml version="1.0" encoding="utf-8"?>
<!-- Generator: Adobe Illustrator 21.0.0, SVG Export Plug-In . SVG Version: 6.00 Build 0)  -->
<svg version="1.1" id="Layer_1" xmlns="http://www.w3.org/2000/svg" xmlns:xlink="http://www.w3.org/1999/xlink" x="0px" y="0px"
	 viewBox="0 0 295 275" style="enable-background:new 0 0 295 275;" xml:space="preserve">
<style type="text/css">
	.st0{opacity:0.6;fill:#EDEDED;}
	.st1{fill:#23e0b9;}
	.st2{fill:none;stroke:#FFFFFF;stroke-width:2.9367;stroke-linecap:round;stroke-linejoin:round;stroke-miterlimit:10;}
	.st3{fill:#FFFFFF;}
	.st4{fill:none;stroke:#23e0b9;stroke-width:2.0448;stroke-linecap:round;stroke-miterlimit:10;}
	.st5{fill:none;stroke:#FFFFFF;stroke-width:3.2059;stroke-linecap:round;stroke-miterlimit:10;}
	.st6{fill:#C4F7E8;}
	.st7{opacity:0.6;}
	.st8{fill:#EDEDED;}
	.st9{fill:#EDEDED;stroke:#EDEDED;stroke-width:1.7493;stroke-miterlimit:10;}
	.st10{fill:#FFFFFF;stroke:#FFFFFF;stroke-width:1.2245;stroke-miterlimit:10;}
</style>
<g>
	<g>
		<path class="st0" d="M141.4,159.4l-53,30.6c-2.2,1.3-2.2,4.5,0,5.8l9.5,5.5l-12,6.9c-0.7,0.4-0.4,1.5,0.4,1.5h26.1l54.7,31.6
			c2,1.2,4.5,1.2,6.5,0l49.7-28.7c2.2-1.3,2.2-4.5,0-5.8l-67.5-38.9L141.4,159.4z"/>
		<path class="st1" d="M137.9,152.1l-49.7,28.7c-2.2,1.3-2.2,4.5,0,5.8l9.5,5.5l-12,6.9c-0.7,0.4-0.4,1.5,0.4,1.5h26.1l54.7,31.6
			c2,1.2,4.5,1.2,6.5,0l49.7-28.7c2.2-1.3,2.2-4.5,0-5.8l-67.5-38.9l-11.2-6.5C142.4,151,139.9,151,137.9,152.1z"/>
		<line class="st2" x1="137.4" y1="165.3" x2="201.6" y2="202.3"/>
		<line class="st2" x1="123.8" y1="172.6" x2="188" y2="209.6"/>
		<line class="st2" x1="110" y1="181.1" x2="174.2" y2="218.1"/>
	</g>
	<g>
		<path class="st0" d="M229.1,11.4l-40.8,23.5c-1.7,1-1.7,3.5,0,4.4l7.3,4.2l-9.2,5.3c-0.5,0.3-0.3,1.1,0.3,1.1h20.1l42.1,24.3
			c1.6,0.9,3.5,0.9,5,0l38.3-22.1c1.7-1,1.7-3.5,0-4.4l-51.9-30L229.1,11.4z"/>
		<path class="st3" d="M226.5,5.8l-38.3,22.1c-1.7,1-1.7,3.5,0,4.4l7.3,4.2l-9.2,5.3c-0.5,0.3-0.3,1.1,0.3,1.1h20.1l42.1,24.3
			c1.6,0.9,3.5,0.9,5,0L292,45.2c1.7-1,1.7-3.5,0-4.4l-51.9-30l-8.6-5C229.9,4.9,228,4.9,226.5,5.8z"/>
		<line class="st4" x1="226.1" y1="15.9" x2="275.4" y2="44.4"/>
		<line class="st4" x1="215.6" y1="21.5" x2="265" y2="50"/>
		<line class="st4" x1="205" y1="28" x2="254.4" y2="56.5"/>
	</g>
	<g>
		<path class="st0" d="M89.8,90.9L3.3,140.8c-2.2,1.2-2.2,4.3,0,5.6l57.2,33.1c2,1.1,4.4,1.1,6.3,0l75.1-43.4v-14.6L89.8,90.9z"/>
		<path class="st1" d="M86.6,82.7L3.3,130.8c-2.2,1.2-2.2,4.3,0,5.6l57.2,33.1c2,1.1,4.4,1.1,6.3,0l75.1-43.4v-14.6L93,82.7
			C91,81.6,88.6,81.6,86.6,82.7z"/>
		<line class="st5" x1="81.6" y1="101.1" x2="103.2" y2="113.6"/>
		<line class="st5" x1="71.7" y1="106.2" x2="110" y2="128.8"/>
		<line class="st5" x1="62.2" y1="111.8" x2="100.5" y2="134.4"/>
		<line class="st5" x1="53.1" y1="116.3" x2="91.4" y2="138.9"/>
		<line class="st5" x1="42.8" y1="122.5" x2="81" y2="145"/>
		<line class="st5" x1="32.6" y1="128.8" x2="70.9" y2="151.4"/>
		<polygon class="st6" points="142,111.3 142,126.4 129,118.8 		"/>
	</g>
	<g>
		<path class="st0" d="M165.5,50.3l60,34.6c2,1.2,2,4.1,0,5.2l-51.6,29.8c-1.7,1-3.9,1-5.6,0l-60-34.6c-2-1.2-2-4.1,0-5.2l51.6-29.8
			C161.6,49.3,163.8,49.3,165.5,50.3z"/>
		<path class="st3" d="M165.5,40.8l60,34.6c2,1.2,2,4.1,0,5.2l-51.6,29.8c-1.7,1-3.9,1-5.6,0l-60-34.6c-2-1.2-2-4.1,0-5.2l51.6-29.8
			C161.6,39.8,163.8,39.8,165.5,40.8z"/>
		<path class="st1" d="M171.5,65.8l6.9,12c0.9,1.5-0.4,3.4-2.2,3l-21.5-4.2c-1.8-0.3-2.1-2.7-0.6-3.6l14.3-8.1
			C169.6,64.3,170.9,64.7,171.5,65.8z"/>
	</g>
	<path class="st3" d="M228.3,154.6"/>
	<g>
		<path class="st0" d="M223.4,115.3c-1.1-0.7-2.5-0.7-3.7,0l-57.8,33.4c-1.2,0.7-1.2,2.4,0,3.1l80.9,46.7c1.1,0.7,2.5,0.7,3.7,0
			l48.6-28v-13.6L223.4,115.3z"/>
		<path class="st1" d="M223.4,106.4c-1.1-0.7-2.5-0.7-3.7,0l-57.8,33.4c-1.2,0.7-1.2,2.4,0,3.1l80.9,46.7c1.1,0.7,2.5,0.7,3.7,0
			l48.6-28V148L223.4,106.4z"/>
		<g class="st7">
			<g>
				<path class="st8" d="M207.2,130l-5.4,3.1c-1.8,1-1.8,3.6,0,4.6l9.9,5.7l10.5,18.2c1.8,3.2,5.9,4.2,9,2.4l26.9-15.6
					c3-1.8,2.3-6.4-1.2-7l-31.5-6.1L216,130C213.3,128.4,209.9,128.4,207.2,130z"/>
				<path class="st8" d="M206.7,139.6l5.8,3.6l-10,6.2c-1,0.6-2.2,0.6-3.1,0l-2-1.2c-1-0.6-1-2.1,0-2.7L206.7,139.6z"/>
				<path class="st8" d="M253.6,144.5l-26.8,15.4c-0.8,0.5-0.8,1.6,0,2l0,0c0.6,0.3,1.3,0.3,1.8,0l26.8-15.4c0.8-0.5,0.8-1.6,0-2
					l0,0C254.9,144.1,254.2,144.1,253.6,144.5z"/>
				<path class="st8" d="M211,130.3l-8,4.6c-0.2,0.1-0.2,0.5,0,0.6l0,0c0.2,0.1,0.4,0.1,0.6,0l8-4.6c0.2-0.1,0.2-0.5,0-0.6l0,0
					C211.4,130.2,211.2,130.2,211,130.3z"/>
			</g>
			<path class="st9" d="M259.8,153.6c-0.2,0.1-0.2,0.3-0.2,0.5c0.3,3.7-1.5,6.5-6.6,8.8c-3.8,1.7-8.5,2.4-12.9,2
				c-0.1,0-0.2,0-0.2,0.1l0,0c-0.3,0.2-0.2,0.7,0.2,0.7c4.8,0.4,9.8-0.2,13.9-2.1c5.1-2.4,7.5-6.3,6.7-9.8c-0.1-0.2-0.4-0.3-0.6-0.2
				L259.8,153.6z"/>
			<path class="st9" d="M267.6,155.9c-0.2,0.1-0.3,0.3-0.3,0.5c0.5,5.2-2,9-9,12.2c-5.2,2.4-11.7,3.3-17.7,2.7c-0.1,0-0.2,0-0.3,0.1
				l0,0c-0.5,0.3-0.3,1,0.2,1c6.5,0.6,13.5-0.3,19.1-2.9c7-3.3,10.2-8.6,9.2-13.4c-0.1-0.4-0.5-0.6-0.8-0.4L267.6,155.9z"/>
		</g>
		<g>
			<g>
				<path class="st3" d="M207.5,125.7l-5.4,3.1c-1.8,1-1.8,3.6,0,4.6l9.9,5.7l10.5,18.2c1.8,3.2,5.9,4.2,9,2.4l26.9-15.6
					c3-1.8,2.3-6.4-1.2-7l-31.5-6.1l-9.4-5.4C213.6,124.1,210.2,124.1,207.5,125.7z"/>
				<path class="st3" d="M207,135.3l5.8,3.6l-10,6.2c-1,0.6-2.2,0.6-3.1,0l-2-1.2c-1-0.6-1-2.1,0-2.7L207,135.3z"/>
				<path class="st1" d="M253.9,140.1l-26.8,15.4c-0.8,0.5-0.8,1.6,0,2l0,0c0.6,0.3,1.3,0.3,1.8,0l26.8-15.4c0.8-0.5,0.8-1.6,0-2h0
					C255.2,139.8,254.5,139.8,253.9,140.1z"/>
				<path class="st1" d="M211.3,126l-8,4.6c-0.2,0.1-0.2,0.5,0,0.6l0,0c0.2,0.1,0.4,0.1,0.6,0l8-4.6c0.2-0.1,0.2-0.5,0-0.6l0,0
					C211.7,125.9,211.5,125.9,211.3,126z"/>
			</g>
			<path class="st10" d="M260.1,149.3c-0.2,0.1-0.2,0.3-0.2,0.5c0.3,3.7-1.5,6.5-6.6,8.8c-3.8,1.7-8.5,2.4-12.9,2
				c-0.1,0-0.2,0-0.2,0.1l0,0c-0.3,0.2-0.2,0.7,0.2,0.7c4.8,0.4,9.8-0.2,13.9-2.1c5.1-2.4,7.5-6.3,6.7-9.8c-0.1-0.2-0.4-0.3-0.6-0.2
				L260.1,149.3z"/>
			<path class="st10" d="M267.9,151.6c-0.2,0.1-0.3,0.3-0.3,0.5c0.5,5.2-2,9-9,12.2c-5.2,2.4-11.7,3.3-17.7,2.7
				c-0.1,0-0.2,0-0.3,0.1l0,0c-0.5,0.3-0.3,1,0.2,1c6.5,0.6,13.5-0.3,19.1-2.9c7-3.3,10.2-8.6,9.2-13.4c-0.1-0.4-0.5-0.6-0.8-0.4
				L267.9,151.6z"/>
		</g>
	</g>
	<g>
		<path class="st0" d="M239.5,104c-1.3,0.8-1.3,2.7,0,3.4l55.5,32.1V72L239.5,104z"/>
		<path class="st1" d="M239.5,95.7c-1.3,0.8-1.3,2.7,0,3.4l55.5,32.1V63.7L239.5,95.7z"/>
		<g>
			<path class="st0" d="M285.1,96.9c-1.4,0.8-1.4,2.9,0,3.7l9.9,5.7V91.2L285.1,96.9z"/>
			<path class="st3" d="M285.1,91.6c-1.4,0.8-1.4,2.9,0,3.7l9.9,5.7V85.8L285.1,91.6z"/>
		</g>
	</g>
	<g>
		<path class="st0" d="M230,230.2c-1.4,0.8-1.4,2.9,0,3.7l65,37.5v-78.8L230,230.2z"/>
		<path class="st1" d="M230,221.2c-1.4,0.8-1.4,2.9,0,3.7l65,37.5v-78.8L230,221.2z"/>
		<g>
			<path class="st0" d="M280,226.9c-1.3,0.8-1.3,2.6,0,3.4l15,8.7v-20.8L280,226.9z"/>
			<path class="st3" d="M280,222c-1.3,0.8-1.3,2.6,0,3.4l15,8.7v-20.8L280,222z"/>
		</g>
	</g>
</g>
</svg>
