<svg xmlns="http://www.w3.org/2000/svg" style="display: none;">

    <symbol id="icon-notifications" viewBox="0 0 512 512">
      <path d="m256 464c23 0 41-19 41-42l-82 0c0 23 18 42 41 42z m135-125l0-114c0-64-45-118-104-131l0-15c0-17-13-31-31-31-18 0-31 14-31 31l0 15c-59 13-104 67-104 131l0 114-41 42 0 21 352 0 0-21z"/>
    </symbol>

    <symbol id="icon-chevron-down" viewBox="0 0 512 512">
      <path d="m256 298l174-167c5-4 12-4 16 0l31 30c4 5 4 12 0 16l-213 204c-2 2-5 3-8 3-3 0-6-1-8-3l-213-204c-4-4-4-11 0-16l31-30c4-4 12-4 16 0z"/>
    </symbol>

    <symbol id="icon-mail" viewBox="0 0 512 512">
      <path d="m437 80l-362 0c-24 0-43 19-43 43l0 266c0 24 19 43 43 43l362 0c24 0 43-19 43-43l0-266c0-24-19-43-43-43z m-5 91l-176 117-176-117 0-43 176 117 176-117z"/>
    </symbol>

    <symbol id="icon-create" viewBox="0 0 512 512">
      <path d="m64 368l0 80 80 0 236-236-80-80z m378-218c8-8 8-21 0-29l-51-51c-8-8-21-8-29 0l-40 40 80 80z"/>
    </symbol>

    <symbol id="icon-person" viewBox="0 0 512 512">
      <path d="m256 256c53 0 96-43 96-96 0-53-43-96-96-96-53 0-96 43-96 96 0 53 43 96 96 96z m0 48c-64 0-192 32-192 96l0 48 384 0 0-48c0-64-128-96-192-96z"/>
    </symbol>

    <symbol id="icon-list" viewBox="0 0 512 512">
      <path d="m408 64l-304 0c-22 0-40 18-40 40l0 304c0 22 18 40 40 40l304 0c22 0 40-18 40-40l0-304c0-22-18-40-40-40z m-104 304l-160 0 0-48 160 0z m64-88l-224 0 0-48 224 0z m0-88l-224 0 0-48 224 0z"/>
    </symbol>

    <symbol id="icon-people" viewBox="0 0 512 512">
      <path d="m337 232c34 0 62-27 62-60 0-33-28-60-62-60-33 0-61 27-61 60 0 33 28 60 61 60z m-162 0c33 0 61-27 61-60 0-33-28-60-61-60-34 0-62 27-62 60 0 33 28 60 62 60z m0 44c-48 0-143 23-143 70l0 54 288 0 0-54c0-47-98-70-145-70z m162 11c-6 0-10 0-17 1 23 17 32 28 32 58l0 54 128 0 0-54c0-47-95-59-143-59z"/>
    </symbol>

    <symbol id="icon-document" viewBox="0 0 512 512">
      <path d="m288 48l-152 0c-22 0-40 18-40 40l0 336c0 22 18 40 40 40l240 0c22 0 40-18 40-40l0-248z m-16 144l0-112 112 112z"/>
    </symbol>

    <symbol id="icon-delete" viewBox="0 0 512 512">
      <path d="m128 405c0 24 19 43 43 43l170 0c24 0 43-19 43-43l0-245-256 0z m288-309l-80 0-27-32-106 0-27 32-80 0 0 32 320 0z"/>
    </symbol>

    <symbol id="icon-chat" viewBox="0 0 512 512">
      <path d="m392 64l-334 0c-5 0-10 4-10 8l0 214c0 5 5 9 10 9l57 0 0 89 90-89 187 0c4 0 7-4 7-9l0-214c0-4-3-8-7-8z m64 63l-32 0 0 167c0 16-7 26-25 26l-181 0-39 39 130 0 90 89 0-89 57 0c5 0 8-4 8-9l0-214c0-4-3-9-8-9z"/>
    </symbol>

    <symbol id="icon-search" viewBox="0 0 512 512">
      <path d="m338 305l-18 0-7-5c21-25 34-57 34-93 0-79-63-143-142-143-78 0-141 64-141 143 0 79 63 142 142 142 35 0 68-13 93-34l7 6 0 17 109 110 33-33z m-132 0c-54 0-98-44-98-98 0-55 44-99 98-99 55 0 99 44 99 99 0 54-44 98-99 98z"/>
    </symbol>

    <symbol id="icon-add" viewBox="0 0 512 512">
      <path d="m416 277l-139 0 0 139-42 0 0-139-139 0 0-42 139 0 0-139 42 0 0 139 139 0z"/>
    </symbol>

    <symbol id="icon-apps" viewBox="0 0 512 512">
      <path d="m96 176l80 0 0-80-80 0z m120 240l80 0 0-80-80 0z m-120 0l80 0 0-80-80 0z m0-120l80 0 0-80-80 0z m120 0l80 0 0-80-80 0z m120-200l0 80 80 0 0-80z m-120 80l80 0 0-80-80 0z m120 120l80 0 0-80-80 0z m0 120l80 0 0-80-80 0z"/>
    </symbol>

    <symbol id="icon-time" viewBox="0 0 512 512">
      <path d="m256 43c-118 0-213 96-213 213 0 117 95 213 213 213 118 0 213-96 213-213 0-117-96-213-213-213z m0 383c-94 0-170-76-170-170 0-94 76-170 170-170 94 0 170 76 170 170 0 94-76 170-170 170z m11-276l-32 0 0 127 112 67 16-26-96-57z"/>
    </symbol>

    <symbol id="icon-add-circle" viewBox="0 0 512 512">
      <path d="m256 48c-115 0-208 93-208 208 0 115 93 208 208 208 115 0 208-93 208-208 0-115-93-208-208-208z m107 229l-86 0 0 86-42 0 0-86-86 0 0-42 86 0 0-86 42 0 0 86 86 0z"/>
    </symbol>

    <symbol id="icon-image" viewBox="0 0 512 512">
      <path d="m368 224c27 0 48-21 48-48 0-26-21-48-48-48-26 0-48 22-48 48 0 27 22 48 48 48z m84-160l-392 0c-16 0-28 13-28 28l0 328c0 15 12 28 28 28l392 0c16 0 28-13 28-28l0-328c0-15-12-28-28-28z m-103 198c-3-4-8-6-13-6-5 0-9 2-13 5l-18 16c-4 3-7 5-12 5-4 0-8-2-11-4-1-1-3-3-4-4l-54-59c-4-4-10-7-17-7-6 0-13 3-16 8l-127 152 0-260c1-7 6-12 13-12l358 0c7 0 12 5 13 12l0 260z"/>
    </symbol>
</svg>
