<?xml version="1.0" encoding="utf-8"?>
<!-- Generator: Adobe Illustrator 21.0.0, SVG Export Plug-In . SVG Version: 6.00 Build 0)  -->
<svg version="1.1" id="Layer_1" xmlns="http://www.w3.org/2000/svg" xmlns:xlink="http://www.w3.org/1999/xlink" x="0px" y="0px"
	 viewBox="0 0 168 70" style="enable-background:new 0 0 168 70;" xml:space="preserve">
<style type="text/css">
	.st0{fill:#23e0b9;}
</style>
<g>
	<polygon class="st0" points="24.2,16.6 11.4,12.7 11.4,21.2 38,21.2 38,12.4 	"/>
	<polygon class="st0" points="48.6,7.9 24.3,15 0,7.9 24.3,0.7 	"/>
	<g>
		<polygon class="st0" points="6.7,26.3 4.8,26.3 4.8,10.7 6.7,11.2 		"/>
		<path class="st0" d="M6.6,28.3C7,28,7.2,27.6,7.2,27.1c0-0.8-0.7-1.5-1.5-1.5s-1.5,0.7-1.5,1.5c0,0.5,0.3,0.9,0.7,1.2
			c-0.5,0.3-0.7,0.8-0.7,1.4V36h3.2v-6.3C7.3,29.1,7.1,28.6,6.6,28.3z"/>
	</g>
	<path class="st0" d="M38.1,35.4c-1.9-2.3-4.6-3.8-8.1-4.4l7.5-8.6H25.9l-8.3,9.8v7.1c2.5-0.8,4.4-1.2,5.8-1.2c2.6,0,4.6,0.5,6,1.6
		c1.4,1.1,2.2,2.5,2.2,4.3c0,1.8-0.6,3.2-1.9,4.1c-1.3,1-2.9,1.4-4.8,1.4c-3.2,0-6.9-1.4-11-4.3l-4,7.7c4.9,3.4,9.8,5.1,14.6,5.1
		c4.8,0,8.7-1.3,11.8-3.9c3.1-2.6,4.6-6.1,4.6-10.7C40.9,40.5,40,37.8,38.1,35.4z"/>
	<path class="st0" d="M51.5,57.6h-8.8V14.3h8.8V57.6z"/>
	<path class="st0" d="M83,40.7v16.9h-8.8V40.4c0-2.5-0.4-4.3-1.1-5.5c-0.8-1.2-2-1.8-3.7-1.8c-1.7,0-3.2,0.6-4.5,1.9
		c-1.3,1.3-2,3.1-2,5.6v16.9h-8.8V26.2h8.8v3.6c2.4-2.7,5.2-4.1,8.3-4.1c2,0,3.8,0.6,5.4,1.8c1.6,1.2,2.8,2.6,3.7,4.3
		c1.2-1.9,2.8-3.4,4.9-4.4c2-1.1,4.1-1.6,6.2-1.6c3.7,0,6.7,1.1,8.9,3.3c2.3,2.2,3.4,5.4,3.4,9.6v19.1h-8.8V40.4
		c0-4.8-1.8-7.2-5.3-7.2c-1.8,0-3.3,0.6-4.6,1.9C83.7,36.4,83,38.2,83,40.7z"/>
	<path class="st0" d="M114.7,40.1v17.5H106V26.2h8.8v3.5c2.6-2.7,5.6-4,8.9-4c3.3,0,6.1,1.2,8.3,3.5c2.2,2.3,3.4,5.5,3.4,9.3v19.1
		h-8.8V39.9c0-4.8-1.8-7.2-5.3-7.2c-1.8,0-3.3,0.6-4.6,1.9C115.4,35.8,114.7,37.6,114.7,40.1z"/>
	<path class="st0" d="M143.3,70c-3.1,0-6-1.2-8.7-3.7l4-6.5c1.5,1.4,3,2.2,4.6,2.2c0.8,0,1.5-0.4,2.1-1.2c0.6-0.8,0.9-1.6,0.9-2.5
		c0-0.9-4.1-11.6-12.2-32h9.3l7.7,19.6l7.7-19.6h9.3l-14.6,37c-0.9,2.1-2.2,3.8-4,5C147.6,69.4,145.5,70,143.3,70z"/>
</g>
</svg>
