<?xml version="1.0" encoding="utf-8"?>
<svg version="1.1" id="Layer_1" xmlns="http://www.w3.org/2000/svg" xmlns:xlink="http://www.w3.org/1999/xlink" x="0px" y="0px"
	 viewBox="0 0 150 52.9" style="enable-background:new 0 0 150 52.9;" xml:space="preserve">
<style type="text/css">
	.st0{fill:#FFFFFF;}
</style>
<g>
	<path class="st0" d="M2.3,7.8V0h25.2v6.4l-8.4,9.6c3.3,0.5,5.8,1.9,7.6,4.1c1.8,2.2,2.7,4.8,2.7,7.7c0,4.3-1.5,7.7-4.4,10.1
		c-2.9,2.5-6.7,3.7-11.2,3.7C9.3,41.6,4.7,40,0,36.8l3.8-7.3c3.9,2.7,7.4,4.1,10.4,4.1c1.8,0,3.4-0.4,4.6-1.4
		c1.2-0.9,1.8-2.2,1.8-3.9s-0.7-3.1-2.1-4.1c-1.4-1-3.3-1.5-5.7-1.5c-1.3,0-3.1,0.4-5.5,1.1v-6.8l7.9-9.3H2.3z"/>
	<path class="st0" d="M39.5,41.1h-8.3V0h8.3V41.1z"/>
	<path class="st0" d="M69.4,25.1v16.1H61V24.8c0-2.4-0.4-4.1-1.1-5.2C59.2,18.5,58,18,56.4,18c-1.6,0-3,0.6-4.3,1.8
		c-1.2,1.2-1.9,3-1.9,5.3v16.1H42V11.3h8.3v3.4c2.3-2.6,4.9-3.9,7.9-3.9c1.9,0,3.6,0.6,5.1,1.7c1.5,1.1,2.7,2.5,3.5,4
		c1.1-1.8,2.7-3.2,4.6-4.2c1.9-1,3.9-1.5,5.9-1.5c3.5,0,6.3,1,8.5,3.1C87.9,16,89,19.1,89,23v18.1h-8.4V24.8c0-4.6-1.7-6.9-5-6.9
		c-1.7,0-3.1,0.6-4.3,1.8C70,21,69.4,22.7,69.4,25.1z"/>
	<path class="st0" d="M99.5,24.5v16.6h-8.3V11.3h8.3v3.3c2.5-2.6,5.3-3.8,8.5-3.8c3.1,0,5.8,1.1,7.9,3.3c2.1,2.2,3.2,5.2,3.2,8.9
		v18.1h-8.3V24.3c0-4.6-1.7-6.9-5-6.9c-1.7,0-3.1,0.6-4.4,1.8C100.1,20.4,99.5,22.2,99.5,24.5z"/>
	<path class="st0" d="M126.6,52.9c-2.9,0-5.7-1.2-8.3-3.5l3.8-6.2c1.4,1.4,2.8,2.1,4.3,2.1c0.8,0,1.4-0.4,2-1.1
		c0.6-0.8,0.8-1.6,0.8-2.4c0-0.9-3.8-11-11.5-30.4h8.9l7.3,18.6l7.3-18.6h8.9l-13.9,35.2c-0.8,2-2.1,3.6-3.8,4.7
		C130.6,52.3,128.7,52.9,126.6,52.9z"/>
</g>
</svg>
